<svg width="32" height="32" viewBox="0 0 32 32" fill="none" xmlns="http://www.w3.org/2000/svg">
<path d="M30.9999 13C30.9998 12.2334 30.7793 11.4831 30.3649 10.8383C29.9505 10.1934 29.3595 9.68126 28.6623 9.3627C27.9652 9.04413 27.1911 8.93259 26.4324 9.04136C25.6736 9.15012 24.9621 9.47461 24.3824 9.9762C22.2887 8.8637 19.7874 8.1912 17.1749 8.03495L17.8237 4.1387L20.0387 4.4787C20.1511 5.17741 20.5068 5.8139 21.0431 6.27567C21.5794 6.73744 22.2616 6.99477 22.9693 7.00216C23.6769 7.00955 24.3644 6.76653 24.9102 6.31606C25.456 5.86559 25.825 5.23667 25.952 4.54046C26.0789 3.84425 25.9556 3.12557 25.604 2.51146C25.2523 1.89734 24.6948 1.42732 24.0301 1.18448C23.3654 0.941634 22.6362 0.941598 21.9715 1.18438C21.3067 1.42716 20.7492 1.89712 20.3974 2.5112L17.1474 2.0112C16.8874 1.97111 16.6221 2.0351 16.409 2.18929C16.1958 2.34348 16.052 2.57546 16.0087 2.83495L15.1499 8.01995C12.4199 8.13745 9.79744 8.81745 7.61744 9.9762C6.82132 9.30366 5.79416 8.96839 4.75457 9.04175C3.71499 9.11511 2.74508 9.59131 2.0513 10.369C1.35751 11.1467 0.99464 12.1644 1.03991 13.2056C1.08518 14.2468 1.53503 15.2292 2.29369 15.9437C2.09926 16.6118 2.00036 17.3041 1.99994 18C1.99994 20.7412 3.49994 23.2937 6.23869 25.1862C8.85994 27 12.3262 28 15.9999 28C19.6737 28 23.1399 27 25.7612 25.1862C28.4999 23.2937 29.9999 20.7412 29.9999 18C29.9995 17.3041 29.9006 16.6118 29.7062 15.9437C30.1128 15.5685 30.4376 15.1134 30.6602 14.6068C30.8828 14.1003 30.9985 13.5532 30.9999 13ZM22.9999 2.99995C23.1977 2.99995 23.3911 3.0586 23.5555 3.16848C23.72 3.27836 23.8481 3.43454 23.9238 3.61727C23.9995 3.8 24.0193 4.00106 23.9807 4.19504C23.9421 4.38902 23.8469 4.56721 23.7071 4.70706C23.5672 4.84691 23.389 4.94215 23.195 4.98074C23.0011 5.01932 22.8 4.99952 22.6173 4.92383C22.4345 4.84815 22.2784 4.71997 22.1685 4.55552C22.0586 4.39107 21.9999 4.19773 21.9999 3.99995C21.9999 3.73474 22.1053 3.48038 22.2928 3.29285C22.4804 3.10531 22.7347 2.99995 22.9999 2.99995ZM28.0162 14.7225C27.808 14.8458 27.6516 15.0404 27.576 15.2703C27.5004 15.5001 27.5107 15.7496 27.6049 15.9725C27.8647 16.6169 27.9988 17.3051 27.9999 18C27.9999 20.0662 26.8012 22.0337 24.6249 23.5412C22.3337 25.125 19.2712 26 15.9999 26C12.7287 26 9.66619 25.125 7.37494 23.5412C5.19869 22.0337 3.99994 20.0662 3.99994 18C4.00162 17.3074 4.13481 16.6215 4.39244 15.9787C4.48695 15.7561 4.49761 15.5069 4.42246 15.2771C4.34731 15.0472 4.19143 14.8524 3.98369 14.7287C3.72932 14.577 3.5118 14.3708 3.34685 14.1248C3.1819 13.8789 3.07362 13.5994 3.02985 13.3065C2.98607 13.0136 3.00789 12.7146 3.09372 12.4312C3.17956 12.1477 3.32727 11.8869 3.52618 11.6675C3.7251 11.4481 3.97025 11.2756 4.24395 11.1625C4.51764 11.0494 4.81304 10.9984 5.10881 11.0134C5.40458 11.0283 5.69335 11.1088 5.95424 11.2489C6.21514 11.389 6.44166 11.5854 6.61744 11.8237C6.76253 12.023 6.97612 12.1617 7.21721 12.2131C7.4583 12.2646 7.70989 12.2252 7.92369 12.1025L7.96869 12.075C10.1812 10.7375 13.0312 9.99995 15.9999 9.99995C18.9662 9.99995 21.8162 10.7375 24.0287 12.075L24.0812 12.1062C24.2947 12.2264 24.5449 12.264 24.7843 12.2119C25.0237 12.1599 25.2357 12.0217 25.3799 11.8237C25.5547 11.5834 25.7807 11.385 26.0417 11.243C26.3027 11.101 26.5921 11.0189 26.8888 11.0028C27.1854 10.9866 27.482 11.0367 27.7569 11.1495C28.0318 11.2623 28.278 11.435 28.4779 11.6549C28.6777 11.8748 28.826 12.1364 28.912 12.4208C28.998 12.7052 29.0195 13.0052 28.9751 13.299C28.9306 13.5928 28.8213 13.873 28.655 14.1192C28.4887 14.3654 28.2696 14.5715 28.0137 14.7225H28.0162ZM10.9999 18C10.6044 18 10.2177 17.8827 9.8888 17.6629C9.55991 17.4431 9.30356 17.1308 9.15218 16.7653C9.00081 16.3999 8.9612 15.9977 9.03837 15.6098C9.11554 15.2218 9.30603 14.8654 9.58573 14.5857C9.86544 14.306 10.2218 14.1156 10.6098 14.0384C10.9977 13.9612 11.3999 14.0008 11.7653 14.1522C12.1308 14.3036 12.4431 14.5599 12.6629 14.8888C12.8826 15.2177 12.9999 15.6044 12.9999 16C12.9999 16.5304 12.7892 17.0391 12.4142 17.4142C12.0391 17.7892 11.5304 18 10.9999 18ZM22.9999 16C22.9999 16.3955 22.8826 16.7822 22.6629 17.1111C22.4431 17.44 22.1308 17.6963 21.7653 17.8477C21.3999 17.9991 20.9977 18.0387 20.6098 17.9615C20.2218 17.8844 19.8654 17.6939 19.5857 17.4142C19.306 17.1345 19.1155 16.7781 19.0384 16.3901C18.9612 16.0022 19.0008 15.6 19.1522 15.2346C19.3036 14.8691 19.5599 14.5568 19.8888 14.337C20.2177 14.1173 20.6044 14 20.9999 14C21.5304 14 22.0391 14.2107 22.4142 14.5857C22.7892 14.9608 22.9999 15.4695 22.9999 16ZM20.8837 21.5312C20.9453 21.6472 20.9834 21.7743 20.9959 21.9051C21.0084 22.0359 20.995 22.1678 20.9565 22.2934C20.9179 22.4191 20.855 22.5358 20.7713 22.6371C20.6876 22.7384 20.5848 22.8222 20.4687 22.8837C19.0927 23.615 17.5582 23.9974 15.9999 23.9974C14.4417 23.9974 12.9072 23.615 11.5312 22.8837C11.4151 22.8221 11.3123 22.7383 11.2287 22.637C11.145 22.5358 11.0821 22.419 11.0436 22.2934C11.005 22.1678 10.9916 22.0359 11.0041 21.9051C11.0165 21.7743 11.0546 21.6473 11.1162 21.5312C11.1778 21.4151 11.2616 21.3124 11.3628 21.2287C11.4641 21.145 11.5809 21.0821 11.7065 21.0436C11.8321 21.0051 11.964 20.9916 12.0948 21.0041C12.2256 21.0166 12.3526 21.0546 12.4687 21.1162C13.556 21.6942 14.7685 21.9965 15.9999 21.9965C17.2313 21.9965 18.4439 21.6942 19.5312 21.1162C19.6472 21.0546 19.7743 21.0165 19.9051 21.004C20.0359 20.9915 20.1678 21.0049 20.2934 21.0434C20.419 21.082 20.5358 21.1449 20.6371 21.2286C20.7384 21.3123 20.8222 21.4151 20.8837 21.5312Z" fill="white"/>
</svg>
